<?xml version="1.0" standalone="no"?>
<!DOCTYPE svg PUBLIC "-//W3C//DTD SVG 20010904//EN"
 "http://www.w3.org/TR/2001/REC-SVG-20010904/DTD/svg10.dtd">
<svg version="1.0" xmlns="http://www.w3.org/2000/svg"
 width="2400.000000pt" height="2400.000000pt" viewBox="0 0 2400.000000 2400.000000"
 preserveAspectRatio="xMidYMid meet">

<g transform="translate(0.000000,2400.000000) scale(0.100000,-0.100000)"
fill="#000000" stroke="none">
<path d="M11420 23929 c-2620 -122 -5110 -1089 -7117 -2761 -534 -444 -1088
-998 -1534 -1534 -1547 -1857 -2498 -4152 -2718 -6559 -38 -414 -45 -593 -45
-1095 0 -500 6 -662 45 -1085 193 -2135 967 -4197 2228 -5933 1237 -1704 2907
-3057 4821 -3905 1636 -725 3395 -1074 5165 -1026 392 10 562 21 940 60 933
95 1908 317 2800 639 2424 875 4488 2493 5912 4635 1627 2448 2296 5412 1877
8320 -513 3564 -2607 6711 -5694 8557 -1714 1026 -3627 1598 -5635 1688 -250
11 -799 11 -1045 -1z m6910 -5239 c0 -16 -1591 -6374 -1596 -6379 -3 -3 -304
294 -670 660 l-665 665 341 1403 c188 772 340 1404 338 1406 -2 1 -642 -143
-1423 -320 l-1420 -323 -647 646 c-356 355 -645 649 -642 652 4 4 6351 1596
6377 1599 4 1 7 -4 7 -9z m-8180 -2845 c354 -354 642 -646 639 -649 -2 -3
-1027 -261 -2277 -573 l-2272 -568 1292 -1292 1293 -1291 1490 359 c820 197
1495 358 1501 356 6 -1 -142 -596 -369 -1481 l-379 -1479 1288 -1288 c709
-709 1291 -1285 1295 -1281 3 4 257 1010 563 2237 306 1227 562 2248 567 2269
l11 39 667 -667 668 -668 -789 -3156 c-434 -1737 -794 -3175 -799 -3196 l-11
-39 -5709 5709 -5709 5709 3182 797 c1751 438 3190 797 3198 797 8 1 305 -289
660 -644z"/>
</g>
</svg>
