<?xml version="1.0" standalone="no"?>
<!DOCTYPE svg PUBLIC "-//W3C//DTD SVG 20010904//EN"
 "http://www.w3.org/TR/2001/REC-SVG-20010904/DTD/svg10.dtd">
<svg version="1.0" xmlns="http://www.w3.org/2000/svg"
 width="1000.000000pt" height="1000.000000pt" viewBox="0 0 1000.000000 1000.000000"
 preserveAspectRatio="xMidYMid meet">

<g transform="translate(0.000000,1000.000000) scale(0.100000,-0.100000)"
fill="#000000" stroke="none">
<path d="M4830 9890 c-255 -92 -395 -142 -645 -230 -126 -44 -266 -94 -310
-110 -44 -16 -182 -65 -307 -110 -126 -44 -330 -116 -455 -160 -126 -45 -264
-94 -308 -110 -72 -27 -246 -88 -695 -246 -85 -30 -191 -68 -235 -84 -44 -16
-183 -66 -310 -110 -226 -80 -890 -316 -1093 -388 -103 -37 -103 -37 -98 -67
6 -36 59 -484 121 -1025 44 -385 107 -931 220 -1900 30 -261 70 -612 90 -780
19 -168 55 -478 80 -690 51 -438 112 -964 155 -1345 16 -143 32 -274 35 -292
6 -36 -37 -9 523 -317 53 -29 360 -198 682 -376 322 -177 826 -455 1120 -618
725 -400 1070 -590 1358 -749 l242 -134 243 134 c287 159 632 349 1357 749
294 163 798 441 1120 618 322 178 628 346 680 375 411 225 506 278 514 286 9
8 20 97 120 974 26 220 64 553 86 740 22 187 56 477 75 645 33 283 65 559 210
1815 30 259 75 648 100 865 62 541 115 989 121 1025 5 30 5 30 -98 67 -203 72
-867 308 -1093 388 -126 44 -266 94 -310 110 -44 16 -150 54 -235 84 -449 158
-623 219 -695 246 -44 16 -182 65 -307 110 -126 44 -330 116 -455 160 -126 45
-264 94 -308 110 -44 16 -183 66 -310 110 -126 44 -279 98 -340 120 -231 83
-475 170 -478 170 -1 -1 -76 -28 -167 -60z m-654 -1697 c-4 -10 -80 -186 -169
-390 l-162 -373 -32 0 c-17 0 -248 20 -512 45 -264 25 -484 45 -488 45 -4 0
147 155 337 345 l345 345 344 0 c323 0 343 -1 337 -17z m304 -548 l0 -565 90
-45 c49 -25 94 -45 100 -45 7 0 10 202 10 610 l0 610 100 0 100 0 -2 -1402 -3
-1403 -143 -3 c-141 -3 -144 -2 -235 32 -51 19 -173 64 -272 101 -99 37 -256
95 -350 130 -93 35 -231 86 -305 113 -771 286 -1101 410 -1107 415 -4 5 -63
245 -183 747 -45 190 -88 368 -96 397 -24 88 -25 87 64 79 42 -3 331 -26 642
-51 311 -25 673 -54 804 -66 132 -11 243 -16 247 -12 4 4 48 107 99 228 51
121 111 265 135 320 23 55 69 162 100 238 l58 137 73 0 74 0 0 -565z m790 -45
c0 -408 3 -610 10 -610 6 0 51 20 100 45 l90 45 0 565 0 565 74 0 c50 0 76 -4
79 -12 3 -7 49 -116 102 -243 53 -126 138 -327 187 -445 50 -118 93 -219 97
-223 4 -4 147 4 317 18 170 13 543 43 829 65 286 22 555 43 598 46 88 8 87 9
63 -79 -8 -29 -51 -207 -96 -397 -120 -502 -179 -742 -183 -747 -6 -5 -336
-129 -1107 -415 -74 -27 -211 -78 -305 -113 -93 -35 -251 -93 -350 -130 -99
-37 -221 -82 -272 -101 l-92 -34 -168 2 -168 3 -3 1403 -2 1402 100 0 100 0 0
-610z m1529 266 l343 -343 -48 -6 c-161 -20 -964 -89 -976 -84 -8 3 -49 83
-91 179 -41 95 -116 266 -166 380 -50 114 -91 210 -91 213 0 3 154 5 343 5
l342 0 344 -344z m-3999 -1978 l245 -89 270 -269 c154 -154 278 -270 288 -270
10 0 109 20 219 45 110 25 202 44 205 42 2 -3 -72 -112 -164 -243 l-168 -239
-5 -763 -5 -763 -587 488 -587 488 -1 838 0 838 23 -7 c12 -3 132 -47 267 -96z
m4640 -735 l-1 -838 -587 -489 -587 -488 -5 763 -5 764 -168 239 c-92 131
-166 241 -164 243 3 2 95 -17 206 -42 111 -25 209 -45 219 -45 9 0 138 121
286 269 l270 270 130 47 c72 26 190 69 261 95 72 26 133 48 138 48 4 1 7 -376
7 -836z m-3081 127 l117 -70 500 0 500 0 118 71 c65 39 122 67 126 62 4 -4 94
-137 199 -295 l191 -288 0 -443 0 -442 -342 -245 -343 -245 -3 -97 c-1 -54 -1
-98 2 -98 2 0 155 108 340 240 184 132 338 240 341 240 3 0 4 -43 3 -97 l-3
-96 -342 -245 -343 -244 0 -94 c0 -52 3 -94 8 -94 4 1 133 91 287 201 154 110
306 218 338 240 l57 40 0 -98 0 -98 -345 -245 -344 -245 -1 -98 c0 -76 3 -96
13 -91 6 4 159 113 338 241 180 128 329 233 333 233 3 0 6 -75 6 -168 l0 -167
-146 -220 c-140 -211 -153 -227 -322 -397 l-177 -178 -489 0 -490 0 -173 172
c-167 166 -177 178 -323 398 l-150 225 0 168 c0 92 3 167 6 167 4 0 153 -105
332 -232 179 -128 331 -237 339 -241 10 -6 13 11 13 90 l0 98 -345 245 -345
245 0 98 c0 79 3 96 13 90 8 -4 160 -113 339 -240 179 -128 328 -233 332 -233
3 0 6 42 6 94 l0 94 -345 246 -345 247 0 94 c0 52 3 95 6 95 3 0 157 -108 342
-241 l337 -240 3 91 c1 51 -2 97 -7 104 -6 7 -161 120 -346 251 l-335 240 0
442 0 443 197 295 c108 162 198 295 200 295 3 0 57 -31 122 -70z m-984 -1876
l315 -267 0 -371 0 -371 -320 320 -320 320 0 317 c0 175 2 318 5 318 3 0 147
-120 320 -266z m3525 -52 l0 -317 -313 -313 c-171 -171 -315 -312 -320 -312
-4 0 -7 163 -7 363 l0 363 313 266 c171 147 315 267 320 267 4 1 7 -142 7
-317z"/>
</g>
</svg>
